<svg width="24" height="24" viewBox="0 0 24 24" fill="none" xmlns="http://www.w3.org/2000/svg">
<path d="M21.4686 22.9901V11.11C21.4686 9.96005 20.9986 9.55005 19.9086 9.55005H19.1386C18.0486 9.55005 17.5786 9.96005 17.5786 11.11V22.9901" stroke="#8E949A" stroke-width="1.5" stroke-linecap="round" stroke-linejoin="round"/>
<path d="M13.9491 22.9901V14.36C13.9491 13.21 13.4791 12.8 12.3891 12.8H11.6091C10.5191 12.8 10.0591 13.21 10.0591 14.36V22.9901" stroke="#8E949A" stroke-width="1.5" stroke-linecap="round" stroke-linejoin="round"/>
<path d="M6.38951 22.9901V17.6301C6.38951 16.4801 5.91951 16.0701 4.82951 16.0701H4.04951C2.95951 16.0701 2.49951 16.4801 2.49951 17.6301V23.0101" stroke="#8E949A" stroke-width="1.5" stroke-linecap="round" stroke-linejoin="round"/>
<path d="M0.999512 22.99H22.9995" stroke="#8E949A" stroke-width="1.5" stroke-linecap="round" stroke-linejoin="round"/>
<path d="M2.48877 7.81001L20.5688 3.26001" stroke="#8E949A" stroke-width="1.5" stroke-linecap="round" stroke-linejoin="round"/>
<path d="M19.4694 6.63L20.8894 4.05C21.0431 3.7715 21.0799 3.44336 20.9918 3.13771C20.9036 2.83206 20.6977 2.57391 20.4194 2.42L17.8394 1" stroke="#8E949A" stroke-width="1.5" stroke-linecap="round" stroke-linejoin="round"/>
</svg>
