<svg width="23" height="25" viewBox="0 0 23 25" fill="none" xmlns="http://www.w3.org/2000/svg">
<path d="M3.63127 10.6768V20.1839" stroke="#8E949A" stroke-width="1.5" stroke-linecap="round" stroke-linejoin="round"/>
<path d="M8.92447 20.1525V10.6768" stroke="#8E949A" stroke-width="1.5" stroke-linecap="round" stroke-linejoin="round"/>
<path d="M14.2177 10.6768V20.1525" stroke="#8E949A" stroke-width="1.5" stroke-linecap="round" stroke-linejoin="round"/>
<path d="M19.5006 20.1839V10.6768" stroke="#8E949A" stroke-width="1.5" stroke-linecap="round" stroke-linejoin="round"/>
<path d="M21.4921 6.79841L14.5321 1.93476C13.6547 1.32614 12.6124 1 11.5447 1C10.4769 1 9.43463 1.32614 8.55731 1.93476L1.5763 6.79841C1.39331 6.9361 1.24562 7.11529 1.14539 7.32121C1.04516 7.52713 0.995264 7.7539 0.999795 7.98287V9.21975C0.998412 9.41059 1.03481 9.59981 1.10688 9.77653C1.17896 9.95324 1.28528 10.1139 1.41974 10.2494C1.5542 10.3848 1.71413 10.4923 1.89032 10.5656C2.06651 10.639 2.25547 10.6768 2.44631 10.6767H20.6955C20.8863 10.6768 21.0753 10.639 21.2515 10.5656C21.4276 10.4923 21.5876 10.3848 21.722 10.2494C21.8565 10.1139 21.9628 9.95324 22.0349 9.77653C22.107 9.59981 22.1434 9.41059 22.142 9.21975V7.98287C22.1382 7.74746 22.0771 7.51652 21.9638 7.31011C21.8506 7.10369 21.6886 6.92804 21.4921 6.79841Z" stroke="#8E949A" stroke-width="1.5" stroke-linecap="round" stroke-linejoin="round"/>
<path d="M2.92922 24.0517H20.214C22.1427 24.0517 22.1427 23.0873 22.1427 22.123C22.1427 20.1838 21.1784 20.1838 20.214 20.1838H2.92922C1.96488 20.1838 1.00054 20.1838 1.00054 22.123C1.00054 24.0517 1.96488 24.0517 2.92922 24.0517Z" stroke="#8E949A" stroke-width="1.5" stroke-linecap="round" stroke-linejoin="round"/>
</svg>
