<svg width="24" height="25" viewBox="0 0 24 25" fill="none" xmlns="http://www.w3.org/2000/svg">
<path d="M3.97112 10.4724V19.9796" stroke="#8E949A" stroke-width="1.5" stroke-linecap="round" stroke-linejoin="round"/>
<path d="M9.26432 19.9481V10.4724" stroke="#8E949A" stroke-width="1.5" stroke-linecap="round" stroke-linejoin="round"/>
<path d="M14.5575 10.4724V19.9481" stroke="#8E949A" stroke-width="1.5" stroke-linecap="round" stroke-linejoin="round"/>
<path d="M19.8405 19.9796V10.4724" stroke="#8E949A" stroke-width="1.5" stroke-linecap="round" stroke-linejoin="round"/>
<path d="M21.8319 6.59406L14.8719 1.73041C13.9946 1.12179 12.9523 0.795654 11.8845 0.795654C10.8168 0.795654 9.77448 1.12179 8.89716 1.73041L1.91615 6.59406C1.73315 6.73176 1.58546 6.91094 1.48523 7.11686C1.38501 7.32278 1.33511 7.54956 1.33964 7.77853V9.0154C1.33826 9.20624 1.37465 9.39547 1.44672 9.57218C1.5188 9.74889 1.62513 9.90959 1.75959 10.045C1.89405 10.1805 2.05398 10.2879 2.23016 10.3613C2.40635 10.4346 2.59531 10.4724 2.78616 10.4724H21.0353C21.2262 10.4724 21.4151 10.4346 21.5913 10.3613C21.7675 10.2879 21.9274 10.1805 22.0619 10.045C22.1963 9.90959 22.3027 9.74889 22.3747 9.57218C22.4468 9.39547 22.4832 9.20624 22.4818 9.0154V7.77853C22.4781 7.54311 22.4169 7.31218 22.3037 7.10576C22.1904 6.89935 22.0285 6.7237 21.8319 6.59406Z" stroke="#8E949A" stroke-width="1.5" stroke-linecap="round" stroke-linejoin="round"/>
<path d="M3.26907 23.8474H20.5539C22.4826 23.8474 22.4826 22.883 22.4826 21.9187C22.4826 19.9795 21.5182 19.9795 20.5539 19.9795H3.26907C2.30472 19.9795 1.34038 19.9795 1.34038 21.9187C1.34038 23.8473 2.30472 23.8474 3.26907 23.8474Z" stroke="#8E949A" stroke-width="1.5" stroke-linecap="round" stroke-linejoin="round"/>
</svg>
