<svg width="22" height="24" viewBox="0 0 22 24" fill="none" xmlns="http://www.w3.org/2000/svg">
<path d="M12.7058 20.27C12.7032 20.995 12.4133 21.6893 11.8998 22.201C11.3862 22.7127 10.6908 23 9.96584 23C9.24275 22.9955 8.55009 22.7084 8.03584 22.2C7.52474 21.6876 7.23715 20.9938 7.23584 20.27" stroke="#A3A8AC" stroke-width="1.5" stroke-linecap="round" stroke-linejoin="round"/>
<path d="M7.52588 3.44C7.52588 2.79287 7.78295 2.17225 8.24054 1.71466C8.69813 1.25707 9.31875 1 9.96588 1C10.613 1 11.2336 1.25707 11.6912 1.71466C12.1488 2.17225 12.4059 2.79287 12.4059 3.44" stroke="#A3A8AC" stroke-width="1.5" stroke-linecap="round" stroke-linejoin="round"/>
<path d="M14.666 4.97001C13.3318 3.91712 11.6641 3.3778 9.96599 3.45002C8.99968 3.41376 8.03597 3.57251 7.13235 3.91682C6.22873 4.26112 5.40373 4.78392 4.70657 5.45402C4.0094 6.12412 3.45436 6.92779 3.07457 7.81707C2.69477 8.70635 2.498 9.66302 2.49599 10.63V10.72C2.50809 12.3805 2.10231 14.0174 1.31599 15.48C1.09057 15.9311 0.982468 16.4317 1.00169 16.9356C1.02092 17.4394 1.16684 17.9304 1.42599 18.3629C1.68513 18.7955 2.04913 19.1558 2.48434 19.4104C2.91955 19.6651 3.41194 19.806 3.91599 19.82H16.006C16.5077 19.8069 16.998 19.6682 17.4322 19.4165C17.8664 19.1648 18.2305 18.8082 18.4911 18.3794C18.7518 17.9505 18.9007 17.4632 18.9243 16.9619C18.9479 16.4606 18.8453 15.9614 18.626 15.51C17.8397 14.0474 17.4339 12.4105 17.446 10.75" stroke="#A3A8AC" stroke-width="1.5" stroke-linecap="round" stroke-linejoin="round"/>
<path d="M16.9165 10.5901C18.5734 10.5901 19.9165 9.24694 19.9165 7.59009C19.9165 5.93323 18.5734 4.59009 16.9165 4.59009C15.2597 4.59009 13.9165 5.93323 13.9165 7.59009C13.9165 9.24694 15.2597 10.5901 16.9165 10.5901Z" stroke="#A3A8AC" stroke-width="1.5" stroke-linecap="round" stroke-linejoin="round"/>
<path d="M17.31 3.02002C17.6496 3.10209 17.9977 3.15586 18.3288 3.26906C19.3633 3.62347 20.2332 4.34269 20.7757 5.29214C21.3183 6.24159 21.4962 7.3562 21.2763 8.42739C21.0565 9.49858 20.4538 10.4529 19.5811 11.1119C18.7084 11.7708 17.6255 12.0892 16.535 12.0074C15.4446 11.9256 14.4213 11.4493 13.6566 10.6676C12.892 9.88581 12.4384 8.85223 12.3808 7.76022C12.3231 6.66822 12.6654 5.59263 13.3435 4.73472C14.0215 3.87682 14.989 3.2954 16.0648 3.09926C16.1893 3.07662 16.311 3.04549 16.4327 3.02002H17.31Z" fill="#E73726"/>
</svg>
