<svg width="26" height="26" viewBox="0 0 26 26" fill="none" xmlns="http://www.w3.org/2000/svg">
<path d="M18.7538 3.44001C18.7538 5.93347 14.1736 8.79077 14.1736 8.79077C14.1736 8.79077 9.59332 5.95487 9.59332 3.44001C9.58599 2.89118 9.76639 2.35632 10.1046 1.92405C10.4429 1.49177 10.9186 1.18803 11.4531 1.06315C11.9876 0.938271 12.5487 0.99975 13.0435 1.2374C13.5382 1.47505 13.937 1.8746 14.1736 2.36986C14.4102 1.8746 14.8089 1.47505 15.3037 1.2374C15.7984 0.99975 16.3595 0.938271 16.894 1.06315C17.4285 1.18803 17.9043 1.49177 18.2425 1.92405C18.5808 2.35632 18.7612 2.89118 18.7538 3.44001Z" stroke="#456EFE" stroke-width="1.5" stroke-linecap="round" stroke-linejoin="round"/>
<path d="M3.85688 9.52905H2.90444C1.56675 9.52905 0.999573 10.0106 0.999573 11.3376V22.6812C0.999573 24.0189 1.56675 24.5005 2.90444 24.5005H3.85688C5.19457 24.5005 5.76175 24.0189 5.76175 22.6812V11.3376C5.79385 10.0106 5.19457 9.52905 3.85688 9.52905Z" stroke="#456EFE" stroke-width="1.5" stroke-linecap="round" stroke-linejoin="round"/>
<path d="M6.05156 22.1032L14.2382 22.2423C15.2581 22.254 16.2486 21.901 17.0313 21.2471L23.6021 16.1318C24.0816 15.7653 24.4068 15.2327 24.5137 14.6386C24.6207 14.0446 24.5016 13.4321 24.1799 12.9213C23.8796 12.4302 23.4139 12.0624 22.8666 11.8839C22.3194 11.7054 21.7264 11.7279 21.1942 11.9475L16.1003 14.0236" stroke="#456EFE" stroke-width="1.5" stroke-linecap="round" stroke-linejoin="round"/>
<path d="M11.4879 17.3412L14.6128 16.4851C15.0778 16.3689 15.4849 16.0879 15.7584 15.6943C16.032 15.3007 16.1535 14.8212 16.1003 14.3448C16.0525 13.9321 15.8774 13.5444 15.5994 13.2357C15.3213 12.927 14.9541 12.7124 14.5486 12.6219L6.05156 12.4399" stroke="#456EFE" stroke-width="1.5" stroke-linecap="round" stroke-linejoin="round"/>
</svg>
