<svg width="24" height="24" viewBox="0 0 24 24" fill="none" xmlns="http://www.w3.org/2000/svg">
<path d="M3.44983 12.7023V17.7023C3.44983 22.1923 3.88982 23.0023 8.71982 22.9723H15.1798C19.7198 22.9723 20.4598 22.1123 20.4598 17.6223V12.6223" stroke="#456EFE" stroke-width="1.5" stroke-linecap="round" stroke-linejoin="round"/>
<path d="M0.999634 9.85254V8.66254C0.999634 7.04254 1.59962 6.35254 3.29962 6.35254H20.6096C22.3096 6.35254 22.9196 7.04254 22.9196 8.65254V9.85254C22.9196 11.4725 22.3096 12.1625 20.6096 12.1625H3.29962C1.59962 12.1225 0.999634 11.4325 0.999634 9.85254Z" stroke="#456EFE" stroke-width="1.5" stroke-linecap="round" stroke-linejoin="round"/>
<path d="M18.4696 2.85243C18.2039 2.50831 17.8648 2.22765 17.4771 2.03081C17.0894 1.83397 16.6628 1.72589 16.2281 1.7144C15.7935 1.70291 15.3617 1.78831 14.9641 1.96439C14.5666 2.14047 14.2132 2.40283 13.9296 2.73243C13.1713 3.78555 12.6805 5.00734 12.4996 6.29243H15.2596C18.1296 6.31243 20.2296 4.85243 18.4696 2.85243Z" stroke="#456EFE" stroke-width="1.5" stroke-linecap="round" stroke-linejoin="round"/>
<path d="M10.8397 2.17243C10.5067 1.79257 10.0942 1.4907 9.63134 1.28828C9.16853 1.08585 8.6668 0.98784 8.16183 1.0012C7.65686 1.01457 7.16105 1.13898 6.70959 1.3656C6.25813 1.59222 5.8621 1.91549 5.54968 2.31243C3.54968 4.60243 5.93969 6.31243 9.27969 6.31243H12.4997C12.2861 4.81934 11.7168 3.39945 10.8397 2.17243Z" stroke="#456EFE" stroke-width="1.5" stroke-linecap="round" stroke-linejoin="round"/>
</svg>
