<svg width="23" height="24" viewBox="0 0 23 24" fill="none" xmlns="http://www.w3.org/2000/svg">
<path d="M11.5007 14.3701V21.4501C11.5008 21.8561 11.3416 22.2458 11.0574 22.5357C10.7732 22.8255 10.3866 22.9923 9.9807 23.0001C9.77678 23.0014 9.57463 22.9623 9.38597 22.8848C9.19732 22.8074 9.02591 22.6933 8.88172 22.5491C8.73752 22.4049 8.6234 22.2335 8.54598 22.0448C8.46855 21.8562 8.42937 21.654 8.4307 21.4501V20.9201" stroke="#456EFE" stroke-width="1.5" stroke-linecap="round" stroke-linejoin="round"/>
<path d="M11.5107 2.91V1" stroke="#456EFE" stroke-width="1.5" stroke-linecap="round" stroke-linejoin="round"/>
<path d="M21.6606 8.92014L21.3106 8.35014C20.2805 6.68587 18.8424 5.31232 17.1325 4.35977C15.4227 3.40721 13.4979 2.90723 11.5406 2.90723C9.58336 2.90723 7.65853 3.40721 5.9487 4.35977C4.23887 5.31232 2.80071 6.68587 1.77062 8.35014L1.42063 8.92014C1.20075 9.25044 1.06231 9.62816 1.01666 10.0223C0.97102 10.4165 1.01946 10.8158 1.15804 11.1876C1.29661 11.5594 1.52136 11.8931 1.81384 12.1612C2.10633 12.4294 2.45821 12.6243 2.84062 12.7301C8.48669 14.6199 14.5946 14.6199 20.2406 12.7301C20.6096 12.6055 20.9461 12.4001 21.2258 12.129C21.5054 11.8579 21.721 11.5279 21.8571 11.163C21.9931 10.798 22.046 10.4074 22.012 10.0194C21.9781 9.63141 21.858 9.25588 21.6606 8.92014Z" stroke="#456EFE" stroke-width="1.5" stroke-linecap="round" stroke-linejoin="round"/>
<path d="M15.9801 13.5502C14.9801 7.33016 13.3401 2.91016 11.5301 2.91016C9.72008 2.91016 8.04008 7.33016 7.08008 13.5502" stroke="#456EFE" stroke-width="1.5" stroke-linecap="round" stroke-linejoin="round"/>
</svg>
