<svg width="26" height="26" viewBox="0 0 26 26" fill="none" xmlns="http://www.w3.org/2000/svg">
<path d="M12.7059 12.9599C12.1271 12.9599 11.5719 12.73 11.1626 12.3207C10.7533 11.9114 10.5234 11.3563 10.5234 10.7775C10.5234 10.1986 10.7533 9.6435 11.1626 9.23421C11.5719 8.82491 12.1271 8.59497 12.7059 8.59497H15.2157" stroke="#456EFE" stroke-width="1.5" stroke-linecap="round" stroke-linejoin="round"/>
<path d="M12.7061 12.96H13.7973C14.3762 12.96 14.9313 13.1899 15.3406 13.5992C15.7499 14.0085 15.9798 14.5636 15.9798 15.1424C15.9798 15.7213 15.7499 16.2764 15.3406 16.6857C14.9313 17.095 14.3762 17.3249 13.7973 17.3249H11.2875" stroke="#456EFE" stroke-width="1.5" stroke-linecap="round" stroke-linejoin="round"/>
<path d="M13.2302 7.24194V8.63873" stroke="#456EFE" stroke-width="1.5" stroke-linecap="round" stroke-linejoin="round"/>
<path d="M13.2302 17.2812V18.678" stroke="#456EFE" stroke-width="1.5" stroke-linecap="round" stroke-linejoin="round"/>
<path d="M19.9407 12.96H20.8355" stroke="#456EFE" stroke-width="1.5" stroke-linecap="round" stroke-linejoin="round"/>
<path d="M5.63412 12.96H6.52893" stroke="#456EFE" stroke-width="1.5" stroke-linecap="round" stroke-linejoin="round"/>
<path d="M13.2292 24.92C19.8345 24.92 25.1892 19.5653 25.1892 12.96C25.1892 6.35467 19.8345 1 13.2292 1C6.62383 1 1.26917 6.35467 1.26917 12.96C1.26917 19.5653 6.62383 24.92 13.2292 24.92Z" stroke="#456EFE" stroke-width="1.5" stroke-linecap="round" stroke-linejoin="round"/>
<path d="M12.7059 12.9599C12.1271 12.9599 11.5719 12.73 11.1626 12.3207C10.7533 11.9114 10.5234 11.3563 10.5234 10.7775C10.5234 10.1986 10.7533 9.6435 11.1626 9.23421C11.5719 8.82491 12.1271 8.59497 12.7059 8.59497H15.2157" stroke="#456EFE" stroke-width="1.5" stroke-linecap="round" stroke-linejoin="round"/>
<path d="M12.7061 12.96H13.7973C14.3762 12.96 14.9313 13.1899 15.3406 13.5992C15.7499 14.0085 15.9798 14.5636 15.9798 15.1424C15.9798 15.7213 15.7499 16.2764 15.3406 16.6857C14.9313 17.095 14.3762 17.3249 13.7973 17.3249H11.2875" stroke="#456EFE" stroke-width="1.5" stroke-linecap="round" stroke-linejoin="round"/>
<path d="M13.2302 7.24194V8.63873" stroke="#456EFE" stroke-width="1.5" stroke-linecap="round" stroke-linejoin="round"/>
<path d="M13.2302 17.2812V18.678" stroke="#456EFE" stroke-width="1.5" stroke-linecap="round" stroke-linejoin="round"/>
<path d="M19.9407 12.96H20.8355" stroke="#456EFE" stroke-width="1.5" stroke-linecap="round" stroke-linejoin="round"/>
<path d="M5.63412 12.96H6.52893" stroke="#456EFE" stroke-width="1.5" stroke-linecap="round" stroke-linejoin="round"/>
<path d="M13.2292 24.92C19.8345 24.92 25.1892 19.5653 25.1892 12.96C25.1892 6.35467 19.8345 1 13.2292 1C6.62383 1 1.26917 6.35467 1.26917 12.96C1.26917 19.5653 6.62383 24.92 13.2292 24.92Z" stroke="#456EFE" stroke-width="1.5" stroke-linecap="round" stroke-linejoin="round"/>
</svg>
