<svg width="20" height="25" viewBox="0 0 20 25" fill="none" xmlns="http://www.w3.org/2000/svg">
<path d="M13.7956 8.01868H6.01562" stroke="#8E949A" stroke-width="1.5" stroke-linecap="round" stroke-linejoin="round"/>
<path d="M7.50488 8.01868V12.1787C7.50488 14.2687 7.7149 14.6487 9.9549 14.6287C12.1949 14.6087 12.4149 14.2387 12.4149 12.1487V8.01868" stroke="#8E949A" stroke-width="1.5" stroke-linecap="round" stroke-linejoin="round"/>
<path d="M9.24502 23.0686C9.43576 23.2195 9.67181 23.3015 9.915 23.3015C10.1582 23.3015 10.3943 23.2195 10.585 23.0686C12.685 21.4786 18.845 16.2786 18.815 10.2086C18.855 9.01406 18.6543 7.82368 18.2248 6.70831C17.7954 5.59295 17.1459 4.57539 16.315 3.71622C15.4841 2.85704 14.4889 2.17383 13.3885 1.70721C12.2882 1.2406 11.1052 1.00012 9.91 1.00012C8.7148 1.00012 7.53183 1.2406 6.43148 1.70721C5.33113 2.17383 4.33589 2.85704 3.50503 3.71622C2.67417 4.57539 2.02468 5.59295 1.59518 6.70831C1.16568 7.82368 0.964965 9.01406 1.005 10.2086C1.005 16.2086 7.16502 21.4786 9.24502 23.0786" stroke="#8E949A" stroke-width="1.5" stroke-linecap="round" stroke-linejoin="round"/>
</svg>
