<svg width="14" height="16" viewBox="0 0 14 16" fill="none" xmlns="http://www.w3.org/2000/svg">
<path d="M8.2629 6.5792C8.2629 6.05599 7.83875 5.63184 7.31553 5.63184C6.79232 5.63184 6.36816 6.05599 6.36816 6.5792V14.1582C6.36816 14.6814 6.79232 15.1055 7.31553 15.1055C7.83875 15.1055 8.2629 14.6814 8.2629 14.1582V6.5792Z" fill="#FF6363"/>
<path d="M2.30134 8.196C1.93137 8.56597 1.33153 8.56597 0.96156 8.196C0.591589 7.82603 0.591589 7.22619 0.96156 6.85622L6.64577 1.17201C7.00442 0.813357 7.58193 0.800808 7.95582 1.14354L13.64 6.35407C14.0257 6.70762 14.0518 7.3069 13.6982 7.69259C13.3447 8.07828 12.7454 8.10433 12.3597 7.75078L7.34415 3.15319L2.30134 8.196Z" fill="#FF6363"/>
</svg>
