<svg width="24" height="26" viewBox="0 0 24 26" fill="none" xmlns="http://www.w3.org/2000/svg">
<path d="M11.2979 14.4685C10.782 14.4685 10.2872 14.2715 9.92243 13.9209C9.55762 13.5703 9.35266 13.0947 9.35266 12.5988C9.34976 12.3515 9.39794 12.1061 9.4944 11.8768C9.59085 11.6476 9.73369 11.4389 9.91461 11.2631C10.0955 11.0872 10.3109 10.9476 10.5484 10.8523C10.7859 10.7571 11.0406 10.708 11.2979 10.708H13.4959" stroke="#13C999" stroke-width="1.5" stroke-linecap="round" stroke-linejoin="round"/>
<path d="M11.298 14.4685H12.2871C12.803 14.4685 13.2978 14.6655 13.6626 15.0161C14.0274 15.3668 14.2324 15.8423 14.2324 16.3382C14.2324 16.8341 14.0274 17.3096 13.6626 17.6603C13.2978 18.0109 12.803 18.2079 12.2871 18.2079H10.0342" stroke="#13C999" stroke-width="1.5" stroke-linecap="round" stroke-linejoin="round"/>
<path d="M11.7705 9.5144V10.7292" stroke="#13C999" stroke-width="1.5" stroke-linecap="round" stroke-linejoin="round"/>
<path d="M11.7705 18.1973V19.412" stroke="#13C999" stroke-width="1.5" stroke-linecap="round" stroke-linejoin="round"/>
<path d="M21.8148 10.708C22.2977 11.8999 22.5438 13.1683 22.5401 14.4474C22.5401 16.4948 21.9084 18.4963 20.725 20.1987C19.5415 21.9011 17.8594 23.2279 15.8914 24.0114C13.9234 24.7949 11.7578 24.9999 9.66861 24.6005C7.57938 24.2011 5.6603 23.2151 4.15405 21.7674C2.64779 20.3196 1.62204 18.4751 1.20646 16.467C0.79089 14.4589 1.00418 12.3775 1.81936 10.4859C2.63453 8.59432 4.01499 6.97757 5.78616 5.84008C7.55732 4.70259 9.63964 4.09546 11.7698 4.09546H17.7814" stroke="#13C999" stroke-width="1.5" stroke-linecap="round" stroke-linejoin="round"/>
<path d="M15.1664 6.65172L17.804 4.11653L15.1664 1.5708" stroke="#13C999" stroke-width="1.5" stroke-linecap="round" stroke-linejoin="round"/>
</svg>
