<svg width="14" height="16" viewBox="0 0 14 16" fill="none" xmlns="http://www.w3.org/2000/svg">
<path d="M5.7371 9.4208C5.7371 9.94401 6.16125 10.3682 6.68447 10.3682C7.20768 10.3682 7.63184 9.94401 7.63184 9.4208L7.63184 1.84185C7.63184 1.31863 7.20769 0.89448 6.68447 0.89448C6.16125 0.89448 5.7371 1.31863 5.7371 1.84185L5.7371 9.4208Z" fill="#13C999"/>
<path d="M11.6987 7.804C12.0686 7.43403 12.6685 7.43403 13.0384 7.804C13.4084 8.17397 13.4084 8.77381 13.0384 9.14378L7.35423 14.828C6.99558 15.1866 6.41807 15.1992 6.04418 14.8565L0.359969 9.64593C-0.0257229 9.29238 -0.0517782 8.6931 0.301773 8.30741C0.655323 7.92172 1.2546 7.89566 1.64029 8.24922L6.65585 12.8468L11.6987 7.804Z" fill="#13C999"/>
</svg>
