<svg width="26" height="26" viewBox="0 0 26 26" fill="none" xmlns="http://www.w3.org/2000/svg">
<path d="M6.05547 7.54234V20.6752C6.05547 23.7915 7.66661 24.5229 9.63813 22.3076C9.82633 22.07 10.069 21.8812 10.3456 21.7572C10.6222 21.6333 10.9246 21.5778 11.2272 21.5954C11.5298 21.6131 11.8237 21.7034 12.084 21.8588C12.3443 22.0141 12.5634 22.2299 12.7226 22.4878L13.8462 24.0671C14.0112 24.3509 14.2479 24.5864 14.5325 24.7501C14.8171 24.9138 15.1396 25 15.4679 25C15.7962 25 16.1188 24.9138 16.4034 24.7501C16.6879 24.5864 16.9246 24.3509 17.0897 24.0671L18.1496 22.4984C18.3101 22.2404 18.5302 22.0247 18.7913 21.8695C19.0525 21.7142 19.3472 21.624 19.6505 21.6063C19.9538 21.5887 20.2569 21.6441 20.5343 21.768C20.8118 21.8919 21.0554 22.0806 21.2447 22.3182C23.2162 24.5335 24.8274 23.8021 24.8274 20.6859V7.54234C24.8274 2.84672 23.7674 1.67017 19.6018 1.67017H3.35257" stroke="#456EFE" stroke-width="1.5" stroke-linecap="round" stroke-linejoin="round"/>
<path d="M3.81849 1.67017C2.02715 1.67017 1.57137 2.84672 1.57137 7.54234V10.7222C1.51061 11.4119 1.71791 12.0985 2.1502 12.6394C2.58249 13.1803 3.20653 13.5338 3.89268 13.6265H6.0126V7.53175C6.055 2.84672 5.60982 1.67017 3.81849 1.67017Z" stroke="#456EFE" stroke-width="1.5" stroke-linecap="round" stroke-linejoin="round"/>
<path d="M15.351 8.72949L13.3476 12.6619H17.5875L15.3298 16.5944" stroke="#456EFE" stroke-width="1.5" stroke-linecap="round" stroke-linejoin="round"/>
</svg>
