<svg width="25" height="26" viewBox="0 0 25 26" fill="none" xmlns="http://www.w3.org/2000/svg">
<path d="M5.19163 10.9257H7.2682C9.34476 10.9257 10.383 9.84893 10.383 7.69546V5.54198C10.383 3.38851 9.34476 2.31177 7.2682 2.31177H5.19163C3.11507 2.31177 2.07678 3.38851 2.07678 5.54198V7.69546C2.07678 9.84893 3.11507 10.9257 5.19163 10.9257Z" stroke="#8E949A" stroke-width="1.5" stroke-miterlimit="10" stroke-linecap="round" stroke-linejoin="round"/>
<path d="M17.6509 10.9257H19.7274C21.804 10.9257 22.8423 9.84893 22.8423 7.69546V5.54198C22.8423 3.38851 21.804 2.31177 19.7274 2.31177H17.6509C15.5743 2.31177 14.536 3.38851 14.536 5.54198V7.69546C14.536 9.84893 15.5743 10.9257 17.6509 10.9257Z" stroke="#8E949A" stroke-width="1.5" stroke-miterlimit="10" stroke-linecap="round" stroke-linejoin="round"/>
<path d="M17.6509 23.8467H19.7274C21.804 23.8467 22.8423 22.77 22.8423 20.6165V18.463C22.8423 16.3095 21.804 15.2328 19.7274 15.2328H17.6509C15.5743 15.2328 14.536 16.3095 14.536 18.463V20.6165C14.536 22.77 15.5743 23.8467 17.6509 23.8467Z" stroke="#8E949A" stroke-width="1.5" stroke-miterlimit="10" stroke-linecap="round" stroke-linejoin="round"/>
<path d="M5.19163 23.8467H7.2682C9.34476 23.8467 10.383 22.77 10.383 20.6165V18.463C10.383 16.3095 9.34476 15.2328 7.2682 15.2328H5.19163C3.11507 15.2328 2.07678 16.3095 2.07678 18.463V20.6165C2.07678 22.77 3.11507 23.8467 5.19163 23.8467Z" stroke="#8E949A" stroke-width="1.5" stroke-miterlimit="10" stroke-linecap="round" stroke-linejoin="round"/>
</svg>
