<svg width="24" height="24" viewBox="0 0 24 24" fill="none" xmlns="http://www.w3.org/2000/svg">
<path d="M15.3 1.00012H8.7C4.4474 1.00012 1 4.44753 1 8.70012V15.3001C1 19.5527 4.4474 23.0001 8.7 23.0001H15.3C19.5526 23.0001 23 19.5527 23 15.3001V8.70012C23 4.44753 19.5526 1.00012 15.3 1.00012Z" stroke="#8E949A" stroke-width="1.5" stroke-linecap="round" stroke-linejoin="round"/>
<path d="M4.7998 12.0001H19.1998" stroke="#8E949A" stroke-width="1.5" stroke-linecap="round" stroke-linejoin="round"/>
<path d="M19.2004 8.59998C19.0704 6.08998 17.9504 4.96998 15.4404 4.84998" stroke="#8E949A" stroke-width="1.5" stroke-linecap="round" stroke-linejoin="round"/>
<path d="M4.7998 8.59998C4.9298 6.08998 6.0498 4.96998 8.5598 4.84998" stroke="#8E949A" stroke-width="1.5" stroke-linecap="round" stroke-linejoin="round"/>
<path d="M4.7998 15.4501C4.9298 17.9601 6.0498 19.0801 8.5598 19.2101" stroke="#8E949A" stroke-width="1.5" stroke-linecap="round" stroke-linejoin="round"/>
<path d="M19.2004 15.4501C19.0704 17.9601 17.9504 19.0801 15.4404 19.2101" stroke="#8E949A" stroke-width="1.5" stroke-linecap="round" stroke-linejoin="round"/>
</svg>
