<svg width="23" height="28" viewBox="0 0 23 28" fill="none" xmlns="http://www.w3.org/2000/svg">
<path d="M1.12958 22.4131H21.7841" stroke="#456EFE" stroke-width="1.5" stroke-linecap="round" stroke-linejoin="round"/>
<path d="M7.50964 27.029H15.4755C21.0623 27.029 21.9737 25.9756 21.9737 20.4361V7.49897C21.9737 3.01298 21.0505 0.953452 15.4637 1.0008H7.50964C1.59145 1.0008 0.999634 3.10767 0.999634 7.59366V20.5308C1.01147 26.0703 1.55594 27.0764 7.50964 27.029Z" stroke="#456EFE" stroke-width="1.5" stroke-linecap="round" stroke-linejoin="round"/>
<path d="M8.61018 14.2812C8.71912 14.7061 8.96464 15.0833 9.30897 15.3549C9.65329 15.6265 10.0773 15.7775 10.5158 15.7845H12.7411C13.2026 15.766 13.6385 15.5671 13.955 15.2307C14.2715 14.8943 14.4434 14.4471 14.4337 13.9853C14.485 13.6033 14.3922 13.2159 14.1734 12.8986C13.9545 12.5813 13.6254 12.3568 13.25 12.2691L9.69913 11.0144C9.32475 10.9292 8.99576 10.7071 8.77676 10.3917C8.55776 10.0764 8.46457 9.69052 8.51549 9.30997C8.50919 9.07834 8.54859 8.84775 8.63145 8.63136C8.71431 8.41497 8.83899 8.21703 8.99838 8.04885C9.15776 7.88067 9.34873 7.74555 9.56036 7.6512C9.77199 7.55685 10.0001 7.50514 10.2318 7.499H12.457C12.9072 7.49232 13.3465 7.63679 13.7049 7.90931C14.0632 8.18183 14.3199 8.56664 14.4337 9.00222" stroke="#456EFE" stroke-width="1.5" stroke-linecap="round" stroke-linejoin="round"/>
<path d="M11.4986 6.31543V16.9682" stroke="#456EFE" stroke-width="1.5" stroke-linecap="round" stroke-linejoin="round"/>
</svg>
